<svg width="43" height="39" viewBox="0 0 43 39" fill="none" xmlns="http://www.w3.org/2000/svg">
<path d="M7.53845 6.42856H40.7217C41.3715 6.42856 41.8487 7.03856 41.6923 7.66924L37.8806 23.0407C37.77 23.4867 37.3696 23.8 36.91 23.8H12.9231" stroke="black" stroke-width="1.5"/>
<path d="M0 1H5.6998C6.14979 1 6.54435 1.30055 6.66388 1.73437L14.3361 29.5799C14.4557 30.0137 14.8502 30.3143 15.3002 30.3143H37.1538" stroke="black" stroke-width="1.5"/>
<path d="M16.1539 6.42856L18.3077 23.2571" stroke="black" stroke-width="1.5"/>
<path d="M24.7692 6.42856V23.2571" stroke="black" stroke-width="1.5"/>
<path d="M33.3846 6.42856L31.2308 23.8" stroke="black" stroke-width="1.5"/>
<ellipse cx="18.3077" cy="35.7429" rx="3.23077" ry="3.25714" fill="black"/>
<ellipse cx="33.3846" cy="35.7429" rx="3.23077" ry="3.25714" fill="black"/>
<path d="M9.69232 15.1143H40.3846" stroke="black" stroke-width="1.5"/>
</svg>
